<svg version="1.1" id="Layer_1" xmlns="http://www.w3.org/2000/svg" xmlns:xlink="http://www.w3.org/1999/xlink" x="0px" y="0px"
	 width="100%" viewBox="0 0 596 590" enable-background="new 0 0 596 590" xml:space="preserve">
<path fill="#FFFFFF" opacity="1.000000" stroke="none" 
	d="
M405.000000,591.000000 
	C270.000000,591.000000 135.500000,591.000000 1.000000,591.000000 
	C1.000000,394.333344 1.000000,197.666672 1.000000,1.000000 
	C199.666672,1.000000 398.333344,1.000000 597.000000,1.000000 
	C597.000000,197.666672 597.000000,394.333344 597.000000,591.000000 
	C533.166687,591.000000 469.333344,591.000000 405.000000,591.000000 
M400.104156,225.549728 
	C408.810883,198.993500 417.566833,172.453293 426.205261,145.874878 
	C431.115143,130.768265 436.644653,115.796524 440.387634,100.397614 
	C443.546204,87.403046 437.587677,74.714325 421.386383,72.914505 
	C413.323730,72.018829 405.072906,71.657715 397.001404,72.278732 
	C385.622437,73.154221 375.802063,78.050812 371.635437,89.326767 
	C369.213989,95.879799 368.968872,103.275078 368.028473,110.329224 
	C366.187164,124.140778 365.317047,138.128830 362.666534,151.776123 
	C356.235321,184.890335 345.842773,216.885239 333.415771,248.221893 
	C327.416901,263.348907 321.033691,278.345245 311.188721,291.428040 
	C302.172180,303.410065 298.095856,303.397644 291.340454,289.953888 
	C284.224487,275.792664 277.853699,261.081146 272.934357,246.029282 
	C263.315308,216.597610 254.497818,186.882645 246.210495,157.045502 
	C241.657150,140.651871 239.256516,123.671806 235.143082,107.140831 
	C231.875046,94.007294 223.762390,84.581665 210.055634,81.517303 
	C195.886047,78.349464 181.870804,80.171204 168.555679,85.513435 
	C159.210510,89.262863 153.744751,97.020706 155.016525,107.147636 
	C156.155075,116.213715 158.476898,125.398750 161.924393,133.859940 
	C175.236313,166.531494 188.760361,199.133194 203.086685,231.369247 
	C213.109421,253.921692 224.161804,276.045654 235.495377,297.978058 
	C246.445099,319.167572 258.747467,339.658752 269.670593,360.861176 
	C275.951355,373.052429 280.666595,385.846313 279.374878,400.326294 
	C277.499390,421.350098 269.542938,439.432922 255.362823,454.798218 
	C244.953659,466.077362 231.134354,472.016693 217.333923,477.825104 
	C208.907547,481.371582 200.449692,484.843414 193.967957,491.629333 
	C185.565964,500.425629 187.852417,513.620850 199.071213,518.391907 
	C203.980560,520.479675 209.573380,521.502075 214.936249,521.886719 
	C236.561417,523.437622 254.840149,514.983826 271.097351,501.637085 
	C295.819946,481.340393 313.221008,455.312683 328.029266,427.384186 
	C342.296478,400.476135 352.655548,371.943329 362.137665,343.105865 
	C374.915985,304.243866 387.286407,265.247772 400.104156,225.549728 
z"/>
<path fill="#346A86" opacity="1.000000" stroke="none" 
	d="
M399.968018,225.929474 
	C387.286407,265.247772 374.915985,304.243866 362.137665,343.105865 
	C352.655548,371.943329 342.296478,400.476135 328.029266,427.384186 
	C313.221008,455.312683 295.819946,481.340393 271.097351,501.637085 
	C254.840149,514.983826 236.561417,523.437622 214.936249,521.886719 
	C209.573380,521.502075 203.980560,520.479675 199.071213,518.391907 
	C187.852417,513.620850 185.565964,500.425629 193.967957,491.629333 
	C200.449692,484.843414 208.907547,481.371582 217.333923,477.825104 
	C231.134354,472.016693 244.953659,466.077362 255.362823,454.798218 
	C269.542938,439.432922 277.499390,421.350098 279.374878,400.326294 
	C280.666595,385.846313 275.951355,373.052429 269.670593,360.861176 
	C258.747467,339.658752 246.445099,319.167572 235.495377,297.978058 
	C224.161804,276.045654 213.109421,253.921692 203.086685,231.369247 
	C188.760361,199.133194 175.236313,166.531494 161.924393,133.859940 
	C158.476898,125.398750 156.155075,116.213715 155.016525,107.147636 
	C153.744751,97.020706 159.210510,89.262863 168.555679,85.513435 
	C181.870804,80.171204 195.886047,78.349464 210.055634,81.517303 
	C223.762390,84.581665 231.875046,94.007294 235.143082,107.140831 
	C239.256516,123.671806 241.657150,140.651871 246.210495,157.045502 
	C254.497818,186.882645 263.315308,216.597610 272.934357,246.029282 
	C277.853699,261.081146 284.224487,275.792664 291.340454,289.953888 
	C298.095856,303.397644 302.172180,303.410065 311.188721,291.428040 
	C321.033691,278.345245 327.416901,263.348907 333.415771,248.221893 
	C345.842773,216.885239 356.235321,184.890335 362.666534,151.776123 
	C365.317047,138.128830 366.187164,124.140778 368.028473,110.329224 
	C368.968872,103.275078 369.213989,95.879799 371.635437,89.326767 
	C375.802063,78.050812 385.622437,73.154221 397.001404,72.278732 
	C405.072906,71.657715 413.323730,72.018829 421.386383,72.914505 
	C437.587677,74.714325 443.546204,87.403046 440.387634,100.397614 
	C436.644653,115.796524 431.115143,130.768265 426.205261,145.874878 
	C417.566833,172.453293 408.810883,198.993500 399.968018,225.929474 
z"/>
</svg>