<?xml version="1.0" encoding="UTF-8"?>
<svg id="Layer_1" data-name="Layer 1" xmlns="http://www.w3.org/2000/svg" viewBox="0 0 720 720">
  <defs>
    <style>
      .cls-1 {
        fill: #000;
        stroke-width: 0px;
      }
    </style>
  </defs>
  <path class="cls-1" d="M551.55,599.69c-49.93,39.3-111.03,62.88-174.51,66.66-61.69,3.67-124.07-11.26-177.3-42.71-55.81-32.97-100.71-83.61-126.79-142.95-25.07-57.04-28.76-124.07-15.2-184.49,13.79-61.42,46.38-117.89,92.69-160.52s106.96-71.56,170.4-79.91c60.96-8.02,123.94,2.36,179.07,29.6,57.67,28.5,105.67,75.06,136.22,131.66,30.19,55.95,39.65,121.73,30.28,184.39s-37.23,120.24-79.85,166c-10.84,11.64-22.57,22.39-35.02,32.28-.87.69,4.21,8.78,3.45,9.39,51.36-40.81,89.07-97.04,106.75-160.26,17.05-60.95,15.05-126.48-5.58-186.3-10.22-29.62-23.33-57.88-41.15-83.74-19.01-27.59-42.41-52.14-69.16-72.33-51.01-38.5-113.66-60.46-177.52-62.55s-129.73,16.41-183.67,52.67c-54.59,36.7-96.81,90.36-119.24,152.23s-24.61,125.78-8.19,187.19,49.73,119.35,98.09,162.19c48.23,42.74,109.53,69.58,173.59,76.37s129.34-6.57,185.38-38.13c14.26-8.03,27.84-17.21,40.7-27.33.86-.68-4.2-8.79-3.45-9.39Z"/>
  <g>
    <path class="cls-1" d="M303.97,439.14c.23,1.64.59,3.28.67,4.93.97,20,.77,20.77,20.79,25.51,12,2.84,24.67,3.78,37.05,3.81,11.31.03,18.99-5.85,22.95-17.71,10.45-31.29,9.37-63.57,9.92-95.76.01-.86-.8-1.73-1.71-3.55-5.04,6.08-9.14,12.3-14.45,17.2-15.14,13.95-29.99,28.4-46.45,40.64-13.25,9.84-30.58,4.42-35.61-11.28-4.77-14.91-7.47-31.05-7.76-46.72-.65-34.28.81-68.59,1.39-102.89.06-3.71,0-7.41,0-12.48-5.03-.84-9.95-1.33-14.66-2.59-2.12-.57-3.84-2.66-5.74-4.06,1.64-1.64,3.11-4.45,4.95-4.73,15.66-2.39,31.4-4.31,48.56-6.57-1.38,13.78-3.5,27.05-3.88,40.37-.95,33.21-1.11,66.44-1.55,99.67-.02,1.68.27,3.39.6,5.05,3.84,19.42,13.35,24.16,30.16,14.05,17.99-10.82,32.48-25.55,42.83-43.91,2.34-4.16,3.39-9.67,3.25-14.51-.73-24.77-2.29-49.52-3.02-74.29-.22-7.49-3.2-11.06-10.31-12.31-3.95-.7-8.02-1.88-11.47-3.83-1.96-1.11-2.79-4.21-4.19-6.51h81.73c.53,1.07,1.06,2.14,1.59,3.22-3.14,2.23-6.1,6.05-9.44,6.42-13.15,1.45-16,9.33-15.97,20.97.15,49.9-1.53,99.84.36,149.66.82,21.56-5.47,38-20.02,51.73-11.27,10.63-24.07,19.67-36.48,29.04-17.98,13.59-38.3,11.11-58.45,7.35-9.85-1.84-19.42-5.14-29.57-7.9.8-3.05,1.12-5.01,1.82-6.81,4.77-12.18,9.51-24.37,14.57-36.43,1.02-2.43,3.38-4.3,5.12-6.43l2.4,1.65Z"/>
    <path class="cls-1" d="M271.11,139.32h177.03v70.86h-22.86v-46.11h-130.72v46.3h-23.46v-71.06Z"/>
    <path class="cls-1" d="M293.94,556.87h130.41v-46.4h23.96v70.2h-177.41v-70.41h23.04v46.61Z"/>
  </g>
</svg>