<svg version="1.1" id="Layer_1" xmlns="http://www.w3.org/2000/svg" xmlns:xlink="http://www.w3.org/1999/xlink" x="0px" y="0px"
	 width="100%" viewBox="0 0 352 288" enable-background="new 0 0 352 288" xml:space="preserve">
<path fill="#000000" opacity="1.000000" stroke="none" 
	d="
M151.053925,120.890518 
	C150.526581,129.525574 150.315308,137.695618 152.256195,145.688721 
	C154.026215,152.978149 157.838531,154.761108 164.404678,151.163452 
	C173.974243,145.920242 181.170990,138.131851 186.746613,128.809006 
	C187.542282,127.478546 187.740280,126.012665 187.762756,124.487434 
	C187.944427,112.156929 187.502823,99.846848 186.597168,87.550995 
	C186.332840,83.962502 185.328033,80.989693 181.050781,80.548126 
	C180.238342,80.464241 179.424133,80.158974 178.666550,79.828094 
	C176.657776,78.950745 173.331512,78.879356 174.129929,75.663986 
	C174.919327,72.484848 177.926300,73.858925 180.071838,74.097168 
	C190.208069,75.222755 200.345139,74.869896 210.486221,74.286453 
	C212.247025,74.185150 214.347260,73.272186 215.093689,75.799530 
	C215.852570,78.368988 214.075485,79.772095 212.006851,79.995140 
	C203.798050,80.880272 203.687286,86.691612 203.244080,92.959686 
	C201.548126,116.944855 201.943924,140.959457 203.610046,164.859406 
	C204.555099,178.415970 197.054062,186.142776 188.652359,194.037231 
	C184.896347,197.566483 180.563614,200.418777 176.220703,203.243240 
	C162.222092,212.347427 148.081680,208.040527 133.964142,203.846527 
	C131.196365,203.024261 131.165924,200.625534 132.591949,198.569473 
	C136.184174,193.390152 138.283752,187.716705 139.138077,181.494217 
	C139.353943,179.921921 139.797958,178.071182 142.077377,178.082382 
	C143.762177,178.090668 144.195190,179.292786 144.623184,180.653564 
	C145.646698,183.907730 143.505676,188.222565 146.839401,190.492584 
	C151.728912,193.821945 157.648026,194.725296 163.413528,195.551514 
	C166.189163,195.949265 169.099289,195.891785 171.894150,195.569305 
	C177.365921,194.937973 181.236755,192.633759 183.176941,186.716827 
	C188.102371,171.695816 187.867325,156.337387 187.649658,139.709656 
	C181.820450,147.220703 175.941071,153.236694 169.851410,159.054016 
	C166.088821,162.648331 161.917053,165.683578 157.356613,168.136307 
	C150.678589,171.727921 143.063980,169.177582 139.746933,162.274292 
	C136.810593,156.163315 135.668411,149.588013 135.740158,142.889221 
	C135.936417,124.568054 136.198166,106.244484 136.775757,87.932648 
	C136.921997,83.296494 135.120514,81.555008 130.902206,81.353516 
	C128.886337,81.257233 126.670456,81.310852 126.806297,78.309364 
	C126.926949,75.643425 128.990051,75.900726 130.792496,75.634621 
	C136.708786,74.761162 142.612747,73.804482 148.523529,72.893227 
	C153.528824,72.121544 154.550140,73.154793 153.786896,78.109772 
	C151.627594,92.127953 151.143967,106.255287 151.053925,120.890518 
z"/>
<path fill="#000000" opacity="1.000000" stroke="none" 
	d="
M215.349091,39.078148 
	C215.348755,47.557663 215.149658,55.556206 215.420181,63.538826 
	C215.588364,68.501465 212.547318,68.295288 209.240082,68.223015 
	C205.966049,68.151474 202.299606,68.984177 202.606934,63.526840 
	C202.887344,58.548222 202.565521,53.538635 202.675995,48.546387 
	C202.741104,45.604141 201.629517,44.336411 198.593002,44.346161 
	C180.278702,44.404980 161.963913,44.396694 143.649689,44.319004 
	C140.393539,44.305191 139.226486,45.686749 139.315918,48.845684 
	C139.457184,53.836361 139.199356,58.839256 139.372742,63.827866 
	C139.568573,69.463058 135.502579,68.009140 132.444962,68.203430 
	C129.305923,68.402893 126.458618,68.479965 126.585983,63.799755 
	C126.821411,55.148411 126.641006,46.485989 126.650970,37.828201 
	C126.658752,31.066883 126.670235,31.037230 133.694824,31.024212 
	C146.348511,31.000759 159.002289,31.018183 171.656021,31.015820 
	C183.643784,31.013582 195.631531,31.003284 207.619293,31.005337 
	C215.310928,31.006653 215.310928,31.013800 215.349091,39.078148 
z"/>
<path fill="#000000" opacity="1.000000" stroke="none" 
	d="
M164.000000,249.981995 
	C153.012344,249.973923 142.522400,249.837494 132.038162,250.022812 
	C127.940842,250.095245 126.467041,248.682541 126.582169,244.526779 
	C126.831009,235.544235 126.852501,226.544266 126.583572,217.562912 
	C126.437454,212.682999 129.302338,212.667526 132.690887,212.800110 
	C135.897507,212.925598 139.687088,211.868301 139.394760,217.401215 
	C139.131638,222.381149 139.435730,227.388474 139.320358,232.379791 
	C139.254837,235.215393 140.068436,236.696915 143.239563,236.683304 
	C161.717468,236.603989 180.195999,236.612534 198.674026,236.674088 
	C201.789719,236.684464 202.718216,235.188690 202.668900,232.351913 
	C202.582138,227.359436 202.798920,222.359024 202.617203,217.371796 
	C202.488373,213.835907 204.031754,212.789597 207.371796,212.738129 
	C215.340729,212.615295 215.343170,212.490906 215.347626,220.567474 
	C215.352036,228.557999 215.151566,236.555206 215.424637,244.536346 
	C215.568497,248.740799 213.976791,250.059311 209.946060,250.023468 
	C194.798462,249.888779 179.648849,249.977402 164.000000,249.981995 
z"/>
</svg>