<?xml version="1.0" encoding="UTF-8"?>
<svg id="white" xmlns="http://www.w3.org/2000/svg" viewBox="0 0 720 720">
  <defs>
    <style>
      .cls-1 {
        fill: #fff;
        stroke-width: 0px;
      }
    </style>
  </defs>
  <path class="cls-1" d="M549.83,594.99c-49.93,39.3-111.03,62.88-174.51,66.66-61.69,3.67-124.07-11.26-177.3-42.71s-100.66-83.51-126.72-142.79c-1.62-3.69-3.14-7.41-4.64-11.15-1.08-2.68-1.74-6.28,2.16,5.92-.31-.98-.68-1.95-1-2.93-.72-2.16-1.42-4.33-2.1-6.5-2.38-7.68-4.45-15.45-6.23-23.29-3.37-14.92-5.63-30.09-6.77-45.34-2.29-30.77,0-61.86,6.76-91.97,13.79-61.42,46.38-117.89,92.69-160.52,47.06-43.32,106.96-71.56,170.4-79.91,60.96-8.02,123.94,2.36,179.07,29.6,57.67,28.5,105.67,75.06,136.22,131.66,4.01,7.43,7.72,15.03,11.11,22.77,1.52,3.48,2.9,7.01,4.36,10.52,1.93,4.64-2.4-6.73-2.16-5.92.3.98.68,1.95,1,2.93.72,2.16,1.42,4.33,2.1,6.5,4.72,15.21,8.24,30.79,10.55,46.55,4.45,30.34,4.4,61.32-.13,91.65-9.25,61.83-37.23,120.24-79.85,166-10.84,11.64-22.57,22.39-35.02,32.28-.47.37,3.05,8.58,3.36,9.42s3.92,9.05,3.55,9.35c51.36-40.81,89.07-97.04,106.75-160.26,17.13-61.24,14.95-126.88-5.8-186.95-11.27-32.63-24.73-63.95-44.39-92.48-19.01-27.59-42.41-52.14-69.16-72.33-51.01-38.5-113.66-60.46-177.52-62.55-64.95-2.12-129.73,16.41-183.67,52.67-54.59,36.7-96.81,90.36-119.24,152.23-21.67,59.76-24.61,125.78-8.19,187.19,17.52,65.49,50.46,126.32,101.54,171.58,48.23,42.74,109.53,69.58,173.59,76.37,63.94,6.77,129.34-6.57,185.38-38.13,14.26-8.03,27.84-17.21,40.7-27.33.47-.37-3.05-8.59-3.36-9.42-.29-.79-3.92-9.06-3.55-9.35Z"/>
  <g>
    <path class="cls-1" d="M303.97,439.14c.23,1.64.59,3.28.67,4.93.97,20,.77,20.77,20.79,25.51,12,2.84,24.67,3.78,37.05,3.81,11.31.03,18.99-5.85,22.95-17.71,10.45-31.29,9.37-63.57,9.92-95.76.01-.86-.8-1.73-1.71-3.55-5.04,6.08-9.14,12.3-14.45,17.2-15.14,13.95-29.99,28.4-46.45,40.64-13.25,9.84-30.58,4.42-35.61-11.28-4.77-14.91-7.47-31.05-7.76-46.72-.65-34.28.81-68.59,1.39-102.89.06-3.71,0-7.41,0-12.48-5.03-.84-9.95-1.33-14.66-2.59-2.12-.57-3.84-2.66-5.74-4.06,1.64-1.64,3.11-4.45,4.95-4.73,15.66-2.39,31.4-4.31,48.56-6.57-1.38,13.78-3.5,27.05-3.88,40.37-.95,33.21-1.11,66.44-1.55,99.67-.02,1.68.27,3.39.6,5.05,3.84,19.42,13.35,24.16,30.16,14.05,17.99-10.82,32.48-25.55,42.83-43.91,2.34-4.16,3.39-9.67,3.25-14.51-.73-24.77-2.29-49.52-3.02-74.29-.22-7.49-3.2-11.06-10.31-12.31-3.95-.7-8.02-1.88-11.47-3.83-1.96-1.11-2.79-4.21-4.19-6.51h81.73c.53,1.07,1.06,2.14,1.59,3.22-3.14,2.23-6.1,6.05-9.44,6.42-13.15,1.45-16,9.33-15.97,20.97.15,49.9-1.53,99.84.36,149.66.82,21.56-5.47,38-20.02,51.73-11.27,10.63-24.07,19.67-36.48,29.04-17.98,13.59-38.3,11.11-58.45,7.35-9.85-1.84-19.42-5.14-29.57-7.9.8-3.05,1.12-5.01,1.82-6.81,4.77-12.18,9.51-24.37,14.57-36.43,1.02-2.43,3.38-4.3,5.12-6.43l2.4,1.65Z"/>
    <path class="cls-1" d="M271.11,139.32h177.03v70.86h-22.86v-46.11h-130.72v46.3h-23.46v-71.06Z"/>
    <path class="cls-1" d="M293.94,556.87h130.41v-46.4h23.96v70.2h-177.41v-70.41h23.04v46.61Z"/>
  </g>
</svg>